<svg xmlns="http://www.w3.org/2000/svg" xmlns:xlink="http://www.w3.org/1999/xlink" width="2000" viewBox="0 0 1500 1499.999933" height="2000" preserveAspectRatio="xMidYMid meet"><defs><filter x="0%" y="0%" width="100%" height="100%" id="2ddc70454e"></filter><mask id="1c27b2b506"><g filter="url(#2ddc70454e)"><g><image x="0" y="0" width="1500" height="1501" preserveAspectRatio="xMidYMid meet"></image></g></g></mask><linearGradient x1="0" gradientTransform="matrix(0.75, 0, 0, -0.75, 0, 1500.91992)" y1="1000" x2="2000" gradientUnits="userSpaceOnUse" y2="1000" id="9d557018e0"><stop stop-opacity="1" stop-color="rgb(100%, 100%, 100%)" offset="0"></stop><stop stop-opacity="1" stop-color="rgb(99.845886%, 99.845886%, 99.845886%)" offset="0.0078125"></stop><stop stop-opacity="1" stop-color="rgb(99.539185%, 99.539185%, 99.539185%)" offset="0.015625"></stop><stop stop-opacity="1" stop-color="rgb(99.232483%, 99.232483%, 99.232483%)" offset="0.0234375"></stop><stop stop-opacity="1" stop-color="rgb(98.925781%, 98.925781%, 98.925781%)" offset="0.03125"></stop><stop stop-opacity="1" stop-color="rgb(98.61908%, 98.61908%, 98.61908%)" offset="0.0390625"></stop><stop stop-opacity="1" stop-color="rgb(98.313904%, 98.313904%, 98.313904%)" offset="0.046875"></stop><stop stop-opacity="1" stop-color="rgb(98.007202%, 98.007202%, 98.007202%)" offset="0.0546875"></stop><stop stop-opacity="1" stop-color="rgb(97.7005%, 97.7005%, 97.7005%)" offset="0.0625"></stop><stop stop-opacity="1" stop-color="rgb(97.393799%, 97.393799%, 97.393799%)" offset="0.0703125"></stop><stop stop-opacity="1" stop-color="rgb(97.087097%, 97.087097%, 97.087097%)" offset="0.078125"></stop><stop stop-opacity="1" stop-color="rgb(96.781921%, 96.781921%, 96.781921%)" offset="0.0859375"></stop><stop stop-opacity="1" stop-color="rgb(96.47522%, 96.47522%, 96.47522%)" offset="0.09375"></stop><stop stop-opacity="1" stop-color="rgb(96.168518%, 96.168518%, 96.168518%)" offset="0.101562"></stop><stop stop-opacity="1" stop-color="rgb(95.861816%, 95.861816%, 95.861816%)" offset="0.109375"></stop><stop stop-opacity="1" stop-color="rgb(95.555115%, 95.555115%, 95.555115%)" offset="0.117188"></stop><stop stop-opacity="1" stop-color="rgb(95.249939%, 95.249939%, 95.249939%)" offset="0.125"></stop><stop stop-opacity="1" stop-color="rgb(94.943237%, 94.943237%, 94.943237%)" offset="0.132812"></stop><stop stop-opacity="1" stop-color="rgb(94.636536%, 94.636536%, 94.636536%)" offset="0.140625"></stop><stop stop-opacity="1" stop-color="rgb(94.329834%, 94.329834%, 94.329834%)" offset="0.148438"></stop><stop stop-opacity="1" stop-color="rgb(94.023132%, 94.023132%, 94.023132%)" offset="0.15625"></stop><stop stop-opacity="1" stop-color="rgb(93.717957%, 93.717957%, 93.717957%)" offset="0.164062"></stop><stop stop-opacity="1" stop-color="rgb(93.411255%, 93.411255%, 93.411255%)" offset="0.171875"></stop><stop stop-opacity="1" stop-color="rgb(93.104553%, 93.104553%, 93.104553%)" offset="0.179688"></stop><stop stop-opacity="1" stop-color="rgb(92.797852%, 92.797852%, 92.797852%)" offset="0.1875"></stop><stop stop-opacity="1" stop-color="rgb(92.49115%, 92.49115%, 92.49115%)" offset="0.195312"></stop><stop stop-opacity="1" stop-color="rgb(92.185974%, 92.185974%, 92.185974%)" offset="0.203125"></stop><stop stop-opacity="1" stop-color="rgb(91.879272%, 91.879272%, 91.879272%)" offset="0.210938"></stop><stop stop-opacity="1" stop-color="rgb(91.572571%, 91.572571%, 91.572571%)" offset="0.21875"></stop><stop stop-opacity="1" stop-color="rgb(91.265869%, 91.265869%, 91.265869%)" offset="0.226563"></stop><stop stop-opacity="1" stop-color="rgb(90.959167%, 90.959167%, 90.959167%)" offset="0.234375"></stop><stop stop-opacity="1" stop-color="rgb(90.653992%, 90.653992%, 90.653992%)" offset="0.242188"></stop><stop stop-opacity="1" stop-color="rgb(90.34729%, 90.34729%, 90.34729%)" offset="0.25"></stop><stop stop-opacity="1" stop-color="rgb(90.040588%, 90.040588%, 90.040588%)" offset="0.257812"></stop><stop stop-opacity="1" stop-color="rgb(89.733887%, 89.733887%, 89.733887%)" offset="0.265625"></stop><stop stop-opacity="1" stop-color="rgb(89.427185%, 89.427185%, 89.427185%)" offset="0.273438"></stop><stop stop-opacity="1" stop-color="rgb(89.120483%, 89.120483%, 89.120483%)" offset="0.28125"></stop><stop stop-opacity="1" stop-color="rgb(88.815308%, 88.815308%, 88.815308%)" offset="0.289062"></stop><stop stop-opacity="1" stop-color="rgb(88.508606%, 88.508606%, 88.508606%)" offset="0.296875"></stop><stop stop-opacity="1" stop-color="rgb(88.201904%, 88.201904%, 88.201904%)" offset="0.304688"></stop><stop stop-opacity="1" stop-color="rgb(87.895203%, 87.895203%, 87.895203%)" offset="0.3125"></stop><stop stop-opacity="1" stop-color="rgb(87.588501%, 87.588501%, 87.588501%)" offset="0.320312"></stop><stop stop-opacity="1" stop-color="rgb(87.283325%, 87.283325%, 87.283325%)" offset="0.328125"></stop><stop stop-opacity="1" stop-color="rgb(86.976624%, 86.976624%, 86.976624%)" offset="0.335938"></stop><stop stop-opacity="1" stop-color="rgb(86.669922%, 86.669922%, 86.669922%)" offset="0.34375"></stop><stop stop-opacity="1" stop-color="rgb(86.36322%, 86.36322%, 86.36322%)" offset="0.351562"></stop><stop stop-opacity="1" stop-color="rgb(86.056519%, 86.056519%, 86.056519%)" offset="0.359375"></stop><stop stop-opacity="1" stop-color="rgb(85.751343%, 85.751343%, 85.751343%)" offset="0.367188"></stop><stop stop-opacity="1" stop-color="rgb(85.444641%, 85.444641%, 85.444641%)" offset="0.375"></stop><stop stop-opacity="1" stop-color="rgb(85.137939%, 85.137939%, 85.137939%)" offset="0.382812"></stop><stop stop-opacity="1" stop-color="rgb(84.831238%, 84.831238%, 84.831238%)" offset="0.390625"></stop><stop stop-opacity="1" stop-color="rgb(84.524536%, 84.524536%, 84.524536%)" offset="0.398438"></stop><stop stop-opacity="1" stop-color="rgb(84.21936%, 84.21936%, 84.21936%)" offset="0.40625"></stop><stop stop-opacity="1" stop-color="rgb(83.912659%, 83.912659%, 83.912659%)" offset="0.414062"></stop><stop stop-opacity="1" stop-color="rgb(83.605957%, 83.605957%, 83.605957%)" offset="0.421875"></stop><stop stop-opacity="1" stop-color="rgb(83.299255%, 83.299255%, 83.299255%)" offset="0.429688"></stop><stop stop-opacity="1" stop-color="rgb(82.992554%, 82.992554%, 82.992554%)" offset="0.4375"></stop><stop stop-opacity="1" stop-color="rgb(82.687378%, 82.687378%, 82.687378%)" offset="0.445313"></stop><stop stop-opacity="1" stop-color="rgb(82.380676%, 82.380676%, 82.380676%)" offset="0.453125"></stop><stop stop-opacity="1" stop-color="rgb(82.073975%, 82.073975%, 82.073975%)" offset="0.460938"></stop><stop stop-opacity="1" stop-color="rgb(81.767273%, 81.767273%, 81.767273%)" offset="0.46875"></stop><stop stop-opacity="1" stop-color="rgb(81.460571%, 81.460571%, 81.460571%)" offset="0.476563"></stop><stop stop-opacity="1" stop-color="rgb(81.155396%, 81.155396%, 81.155396%)" offset="0.484375"></stop><stop stop-opacity="1" stop-color="rgb(80.848694%, 80.848694%, 80.848694%)" offset="0.492188"></stop><stop stop-opacity="1" stop-color="rgb(80.541992%, 80.541992%, 80.541992%)" offset="0.5"></stop><stop stop-opacity="1" stop-color="rgb(80.235291%, 80.235291%, 80.235291%)" offset="0.507812"></stop><stop stop-opacity="1" stop-color="rgb(79.928589%, 79.928589%, 79.928589%)" offset="0.515625"></stop><stop stop-opacity="1" stop-color="rgb(79.621887%, 79.621887%, 79.621887%)" offset="0.523438"></stop><stop stop-opacity="1" stop-color="rgb(79.316711%, 79.316711%, 79.316711%)" offset="0.53125"></stop><stop stop-opacity="1" stop-color="rgb(79.01001%, 79.01001%, 79.01001%)" offset="0.539062"></stop><stop stop-opacity="1" stop-color="rgb(78.703308%, 78.703308%, 78.703308%)" offset="0.546875"></stop><stop stop-opacity="1" stop-color="rgb(78.396606%, 78.396606%, 78.396606%)" offset="0.554688"></stop><stop stop-opacity="1" stop-color="rgb(78.089905%, 78.089905%, 78.089905%)" offset="0.5625"></stop><stop stop-opacity="1" stop-color="rgb(77.784729%, 77.784729%, 77.784729%)" offset="0.570312"></stop><stop stop-opacity="1" stop-color="rgb(77.478027%, 77.478027%, 77.478027%)" offset="0.578125"></stop><stop stop-opacity="1" stop-color="rgb(77.171326%, 77.171326%, 77.171326%)" offset="0.585938"></stop><stop stop-opacity="1" stop-color="rgb(76.864624%, 76.864624%, 76.864624%)" offset="0.59375"></stop><stop stop-opacity="1" stop-color="rgb(76.557922%, 76.557922%, 76.557922%)" offset="0.601562"></stop><stop stop-opacity="1" stop-color="rgb(76.252747%, 76.252747%, 76.252747%)" offset="0.609375"></stop><stop stop-opacity="1" stop-color="rgb(75.946045%, 75.946045%, 75.946045%)" offset="0.617188"></stop><stop stop-opacity="1" stop-color="rgb(75.639343%, 75.639343%, 75.639343%)" offset="0.625"></stop><stop stop-opacity="1" stop-color="rgb(75.332642%, 75.332642%, 75.332642%)" offset="0.632812"></stop><stop stop-opacity="1" stop-color="rgb(75.02594%, 75.02594%, 75.02594%)" offset="0.640625"></stop><stop stop-opacity="1" stop-color="rgb(74.720764%, 74.720764%, 74.720764%)" offset="0.648438"></stop><stop stop-opacity="1" stop-color="rgb(74.414062%, 74.414062%, 74.414062%)" offset="0.65625"></stop><stop stop-opacity="1" stop-color="rgb(74.107361%, 74.107361%, 74.107361%)" offset="0.664062"></stop><stop stop-opacity="1" stop-color="rgb(73.800659%, 73.800659%, 73.800659%)" offset="0.671875"></stop><stop stop-opacity="1" stop-color="rgb(73.493958%, 73.493958%, 73.493958%)" offset="0.679688"></stop><stop stop-opacity="1" stop-color="rgb(73.188782%, 73.188782%, 73.188782%)" offset="0.6875"></stop><stop stop-opacity="1" stop-color="rgb(72.88208%, 72.88208%, 72.88208%)" offset="0.695312"></stop><stop stop-opacity="1" stop-color="rgb(72.575378%, 72.575378%, 72.575378%)" offset="0.703125"></stop><stop stop-opacity="1" stop-color="rgb(72.268677%, 72.268677%, 72.268677%)" offset="0.710938"></stop><stop stop-opacity="1" stop-color="rgb(71.961975%, 71.961975%, 71.961975%)" offset="0.71875"></stop><stop stop-opacity="1" stop-color="rgb(71.656799%, 71.656799%, 71.656799%)" offset="0.726562"></stop><stop stop-opacity="1" stop-color="rgb(71.350098%, 71.350098%, 71.350098%)" offset="0.734375"></stop><stop stop-opacity="1" stop-color="rgb(71.043396%, 71.043396%, 71.043396%)" offset="0.742188"></stop><stop stop-opacity="1" stop-color="rgb(70.736694%, 70.736694%, 70.736694%)" offset="0.75"></stop><stop stop-opacity="1" stop-color="rgb(70.429993%, 70.429993%, 70.429993%)" offset="0.757812"></stop><stop stop-opacity="1" stop-color="rgb(70.123291%, 70.123291%, 70.123291%)" offset="0.765625"></stop><stop stop-opacity="1" stop-color="rgb(69.818115%, 69.818115%, 69.818115%)" offset="0.773438"></stop><stop stop-opacity="1" stop-color="rgb(69.511414%, 69.511414%, 69.511414%)" offset="0.78125"></stop><stop stop-opacity="1" stop-color="rgb(69.204712%, 69.204712%, 69.204712%)" offset="0.789062"></stop><stop stop-opacity="1" stop-color="rgb(68.89801%, 68.89801%, 68.89801%)" offset="0.796875"></stop><stop stop-opacity="1" stop-color="rgb(68.591309%, 68.591309%, 68.591309%)" offset="0.804688"></stop><stop stop-opacity="1" stop-color="rgb(68.286133%, 68.286133%, 68.286133%)" offset="0.8125"></stop><stop stop-opacity="1" stop-color="rgb(67.979431%, 67.979431%, 67.979431%)" offset="0.820312"></stop><stop stop-opacity="1" stop-color="rgb(67.672729%, 67.672729%, 67.672729%)" offset="0.828125"></stop><stop stop-opacity="1" stop-color="rgb(67.366028%, 67.366028%, 67.366028%)" offset="0.835938"></stop><stop stop-opacity="1" stop-color="rgb(67.059326%, 67.059326%, 67.059326%)" offset="0.84375"></stop><stop stop-opacity="1" stop-color="rgb(66.75415%, 66.75415%, 66.75415%)" offset="0.851563"></stop><stop stop-opacity="1" stop-color="rgb(66.447449%, 66.447449%, 66.447449%)" offset="0.859375"></stop><stop stop-opacity="1" stop-color="rgb(66.140747%, 66.140747%, 66.140747%)" offset="0.867188"></stop><stop stop-opacity="1" stop-color="rgb(65.834045%, 65.834045%, 65.834045%)" offset="0.875"></stop><stop stop-opacity="1" stop-color="rgb(65.527344%, 65.527344%, 65.527344%)" offset="0.882813"></stop><stop stop-opacity="1" stop-color="rgb(65.222168%, 65.222168%, 65.222168%)" offset="0.890625"></stop><stop stop-opacity="1" stop-color="rgb(64.915466%, 64.915466%, 64.915466%)" offset="0.898438"></stop><stop stop-opacity="1" stop-color="rgb(64.608765%, 64.608765%, 64.608765%)" offset="0.90625"></stop><stop stop-opacity="1" stop-color="rgb(64.302063%, 64.302063%, 64.302063%)" offset="0.914063"></stop><stop stop-opacity="1" stop-color="rgb(63.995361%, 63.995361%, 63.995361%)" offset="0.921875"></stop><stop stop-opacity="1" stop-color="rgb(63.690186%, 63.690186%, 63.690186%)" offset="0.929688"></stop><stop stop-opacity="1" stop-color="rgb(63.383484%, 63.383484%, 63.383484%)" offset="0.9375"></stop><stop stop-opacity="1" stop-color="rgb(63.076782%, 63.076782%, 63.076782%)" offset="0.945313"></stop><stop stop-opacity="1" stop-color="rgb(62.770081%, 62.770081%, 62.770081%)" offset="0.953125"></stop><stop stop-opacity="1" stop-color="rgb(62.463379%, 62.463379%, 62.463379%)" offset="0.960938"></stop><stop stop-opacity="1" stop-color="rgb(62.158203%, 62.158203%, 62.158203%)" offset="0.96875"></stop><stop stop-opacity="1" stop-color="rgb(61.851501%, 61.851501%, 61.851501%)" offset="0.976563"></stop><stop stop-opacity="1" stop-color="rgb(61.5448%, 61.5448%, 61.5448%)" offset="0.984375"></stop><stop stop-opacity="1" stop-color="rgb(61.238098%, 61.238098%, 61.238098%)" offset="0.992188"></stop><stop stop-opacity="1" stop-color="rgb(60.931396%, 60.931396%, 60.931396%)" offset="1"></stop></linearGradient><clipPath id="8558617c23"><rect x="0" width="1500" y="0" height="1501"></rect></clipPath><pattern id="b30ba1db7a" patternUnits="userSpaceOnUse" width="1500" patternTransform="matrix(1, 0, 0, -1, 0.00003335, 1500.919833)" preserveAspectRatio="xMidYMid meet" viewBox="0 0 1500 1501" height="1501" x="0" y="0"><g><g clip-path="url(#8558617c23)"><g mask="url(#1c27b2b506)"><rect x="-330.000048" fill="url(#9d557018e0)" width="2160.000096" height="2160" y="-329.0801"></rect></g></g></g></pattern><clipPath id="6c1e4954f6"><path d="M 450 586.125 L 1050 586.125 L 1050 913.875 L 450 913.875 Z M 450 586.125 " clip-rule="nonzero"></path></clipPath></defs><rect x="-150" width="1800" fill="#ffffff" y="-149.999993" height="1799.99992" fill-opacity="1"></rect><rect x="-150" fill="url(#b30ba1db7a)" width="1800" y="-149.999993" height="1799.99992"></rect><g clip-path="url(#6c1e4954f6)"><path fill="#9c28b1" d="M 750 630.496094 C 684.113281 630.496094 630.496094 684.113281 630.496094 750 C 630.496094 815.886719 684.113281 869.503906 750 869.503906 C 815.886719 869.503906 869.503906 815.886719 869.503906 750 C 869.503906 684.113281 815.886719 630.496094 750 630.496094 Z M 846.085938 757.46875 L 854.277344 757.46875 C 852.636719 780.683594 843.375 801.820312 828.984375 818.414062 L 823.230469 812.664062 C 820.320312 809.75 815.589844 809.75 812.664062 812.664062 C 809.738281 815.578125 809.75 820.308594 812.664062 823.230469 L 818.414062 828.984375 C 801.820312 843.375 780.683594 852.621094 757.46875 854.277344 L 757.46875 846.085938 C 757.46875 841.964844 754.121094 838.617188 750 838.617188 C 745.878906 838.617188 742.53125 841.964844 742.53125 846.085938 L 742.53125 854.277344 C 719.316406 852.636719 698.179688 843.375 681.585938 828.984375 L 687.335938 823.230469 C 690.25 820.320312 690.25 815.589844 687.335938 812.664062 C 684.421875 809.738281 679.691406 809.75 676.769531 812.664062 L 671.015625 818.414062 C 656.625 801.820312 647.378906 780.683594 645.722656 757.46875 L 653.914062 757.46875 C 658.035156 757.46875 661.382812 754.121094 661.382812 750 C 661.382812 745.878906 658.035156 742.53125 653.914062 742.53125 L 645.722656 742.53125 C 647.363281 719.316406 656.625 698.179688 671.015625 681.585938 L 676.769531 687.335938 C 678.222656 688.792969 680.140625 689.527344 682.046875 689.527344 C 683.949219 689.527344 685.867188 688.792969 687.324219 687.335938 C 690.238281 684.421875 690.238281 679.691406 687.324219 676.769531 L 681.574219 671.015625 C 698.164062 656.625 719.304688 647.378906 742.519531 645.722656 L 742.519531 653.914062 C 742.519531 658.03125 745.867188 661.382812 749.988281 661.382812 C 754.109375 661.382812 757.457031 658.03125 757.457031 653.914062 L 757.457031 645.722656 C 780.671875 647.363281 801.808594 656.625 818.402344 671.015625 L 812.652344 676.769531 C 809.738281 679.679688 809.738281 684.410156 812.652344 687.335938 C 814.109375 688.792969 816.023438 689.527344 817.929688 689.527344 C 819.835938 689.527344 821.75 688.792969 823.207031 687.335938 L 828.957031 681.585938 C 843.347656 698.179688 852.597656 719.316406 854.253906 742.53125 L 846.0625 742.53125 C 841.941406 742.53125 838.59375 745.878906 838.59375 750 C 838.59375 754.121094 841.941406 757.46875 846.0625 757.46875 Z M 757.46875 727.964844 L 757.46875 683.550781 C 757.46875 679.429688 754.121094 676.082031 750 676.082031 C 745.878906 676.082031 742.53125 679.429688 742.53125 683.550781 L 742.53125 727.964844 C 733.355469 731.089844 726.722656 739.765625 726.722656 749.988281 C 726.722656 753.683594 727.605469 757.171875 729.148438 760.269531 L 707.652344 781.765625 C 704.738281 784.679688 704.738281 789.410156 707.652344 792.324219 C 709.109375 793.78125 711.023438 794.515625 712.929688 794.515625 C 714.835938 794.515625 716.75 793.78125 718.207031 792.324219 L 739.707031 770.824219 C 742.816406 772.371094 746.304688 773.253906 749.988281 773.253906 C 762.820312 773.253906 773.265625 762.808594 773.265625 749.976562 C 773.265625 739.753906 766.628906 731.066406 757.457031 727.953125 Z M 750 758.339844 C 745.40625 758.339844 741.660156 754.59375 741.660156 750 C 741.660156 745.40625 745.394531 741.660156 750 741.660156 C 754.605469 741.660156 758.339844 745.40625 758.339844 750 C 758.339844 754.59375 754.59375 758.339844 750 758.339844 Z M 607.046875 708.25 C 598.46875 737.6875 572.089844 757.46875 541.429688 757.46875 L 475.507812 757.46875 L 494.441406 776.402344 C 497.351562 779.316406 497.351562 784.046875 494.441406 786.957031 C 492.984375 788.414062 491.066406 789.148438 489.160156 789.148438 C 487.257812 789.148438 485.339844 788.414062 483.882812 786.957031 L 452.191406 755.265625 C 450.785156 753.871094 450 751.964844 450 749.988281 C 450 748.007812 450.785156 746.105469 452.191406 744.710938 L 483.882812 713.015625 C 486.796875 710.105469 491.527344 710.105469 494.441406 713.015625 C 497.351562 715.929688 497.351562 720.660156 494.441406 723.585938 L 475.507812 742.519531 L 541.429688 742.519531 C 565.769531 742.519531 585.894531 727.417969 592.707031 704.054688 C 602.425781 670.71875 623.078125 640.707031 650.851562 619.570312 C 679.554688 597.710938 713.839844 586.171875 750.011719 586.171875 C 824.640625 586.171875 889.84375 636.546875 908.589844 708.683594 C 909.621094 712.679688 907.230469 716.75 903.238281 717.796875 C 899.242188 718.828125 895.171875 716.441406 894.125 712.445312 C 877.09375 646.890625 817.828125 601.109375 750.011719 601.109375 C 682.195312 601.109375 625.445312 645.160156 607.046875 708.25 Z M 1047.808594 755.277344 L 1016.117188 786.972656 C 1014.660156 788.425781 1012.742188 789.160156 1010.839844 789.160156 C 1008.933594 789.160156 1007.015625 788.425781 1005.558594 786.972656 C 1002.648438 784.058594 1002.648438 779.328125 1005.558594 776.414062 L 1024.492188 757.480469 L 958.570312 757.480469 C 934.230469 757.480469 914.105469 772.582031 907.292969 795.945312 C 897.574219 829.28125 876.921875 859.292969 849.148438 880.429688 C 820.445312 902.289062 786.160156 913.828125 749.988281 913.828125 C 675.359375 913.828125 610.15625 863.453125 591.410156 791.316406 C 590.378906 787.320312 592.769531 783.25 596.761719 782.203125 C 600.757812 781.15625 604.828125 783.558594 605.875 787.554688 C 622.90625 853.109375 682.171875 898.890625 749.988281 898.890625 C 817.804688 898.890625 874.554688 854.839844 892.941406 791.75 C 901.519531 762.3125 927.894531 742.53125 958.554688 742.53125 L 1024.480469 742.53125 L 1005.546875 723.597656 C 1002.636719 720.683594 1002.636719 715.953125 1005.546875 713.027344 C 1008.460938 710.117188 1013.191406 710.117188 1016.105469 713.027344 L 1047.796875 744.722656 C 1050.710938 747.632812 1050.710938 752.363281 1047.796875 755.289062 Z M 1047.808594 755.277344 " fill-opacity="1" fill-rule="nonzero"></path></g></svg>